#N canvas 177 23 1266 843 10;
#X declare -lib mrpeach;
#X obj 1 -47 loadbang;
#X obj 1 -22 import mrpeach;
#X obj 75 294 udpreceive 9999;
#X obj 76 329 unpackOSC;
#X obj 26 395 route /temp;
#X obj -3 356 print;
#X floatatom 26 430 5 0 0 0 - - -;
#X obj 111 395 route /name;
#X obj 111 419 unpack s;
#X symbolatom 112 443 10 0 0 0 - - -;
#X floatatom 290 427 5 0 0 0 - - -;
#X floatatom 192 429 5 0 0 0 - - -;
#X obj 190 394 route /clouds;
#X obj 274 742 text2d;
#X obj 326 525 gemhead;
#X obj 325 551 translateXYZ;
#X msg 341 700 justify center;
#X obj 340 651 loadbang;
#X obj 400 394 route /wind;
#X floatatom 401 428 5 0 0 0 - - -;
#X obj 326 618 colorRGB;
#X msg 339 727 60;
#X msg 27 595 create;
#X msg 61 666 destroy;
#X obj 16 679 tgl 15 0 empty empty empty 17 7 0 10 -262144 -1 -1 0
1;
#X msg 253 627 text \$1;
#X msg 339 589 255;
#X msg 374 589 255;
#X msg 407 589 255;
#X msg 71 720 color 0 0 0;
#X msg 340 674 font /Users/sandyverbruggen/Library/Fonts/Gorditas-Bold.ttf
;
#X obj 311 -64 cnv 15 300 300 empty empty empty 20 12 0 14 -204800
-66577 0;
#X obj 331 132 line~;
#X obj 421 177 line~;
#X obj 353 29 hsl 128 15 0.01 1 0 0 empty empty empty -2 -8 0 10 -262144
-1 -1 11032 1;
#X floatatom 332 63 5 0 0 0 - - -;
#X msg 330 97 \$1 25;
#X obj 374 207 *~;
#X msg 420 146 \$1 25;
#X floatatom 418 121 5 0 0 0 - - -;
#X obj 415 95 expr (1 - $f1);
#X obj 423 205 *~;
#X floatatom 534 94 5 0 0 0 - - -;
#X msg 534 120 \$1 25;
#X obj 533 147 line~;
#X obj 483 130 noise~;
#X obj 511 166 *~;
#X obj 476 50 hsl 128 15 0.01 1 0 0 empty empty empty -2 -8 0 10 -262144
-1 -1 4336 1;
#X obj 99 -63 cnv 15 200 200 empty empty empty 20 12 0 14 -204786 -66577
0;
#X obj 124 58 osc~ 1000;
#X obj 212 42 line~;
#X obj 241 112 *~;
#X text 181 -55 temp;
#X obj 614 352 cnv 15 200 200 empty empty empty 20 12 0 14 -262130
-66577 0;
#X text 676 354 clouds;
#X obj 349 4 / 100;
#X obj 621 -64 cnv 15 560 400 empty empty empty 20 12 0 14 -261234
-66577 0;
#X text 820 -63 wind;
#X obj 668 523 freeverb~;
#X obj 689 564 dac~;
#X obj 680 404 / 100;
#X msg 688 434 roomsize \$1;
#X obj 485 392 route /description;
#X symbolatom 484 441 15 0 0 0 - - -;
#X obj 485 417 unpack s;
#X msg 767 707 text \$1;
#X obj 832 740 text2d;
#X obj 858 540 gemhead;
#X obj 857 571 translateXYZ;
#X msg 844 693 justify center;
#X obj 858 644 loadbang;
#X obj 850 621 colorRGB;
#X msg 931 549 2;
#X msg 863 592 255;
#X msg 898 592 255;
#X msg 931 592 255;
#X msg 847 669 font /Users/sandyverbruggen/Library/Fonts/Gorditas-Bold.ttf
;
#X msg 399 529 0;
#X obj 807 -37 bng 15 250 50 0 empty empty empty 17 7 0 10 -262144
-1 -1;
#X obj 807 -17 openpanel;
#X obj 807 28 soundfiler;
#X obj 808 63 expr 44100 / $f1;
#X floatatom 806 99 5 0 0 0 - - -;
#X obj 806 121 *;
#X obj 807 144 phasor~;
#X obj 805 174 *~;
#X obj 808 295 *~;
#X obj 967 235 hsl 128 15 0 1 0 0 empty empty empty -2 -8 0 10 -262144
-1 -1 12225 1;
#X obj 919 119 hsl 128 15 0 2 0 0 empty empty empty -2 -8 0 10 -262144
-1 -1 984 1;
#X obj 863 99 t b f;
#X floatatom 914 144 5 0 0 0 - - -;
#X floatatom 965 256 5 0 0 0 - - -;
#X obj 835 273 line~;
#X floatatom 835 233 5 0 0 0 - - -;
#X msg 835 252 \$1 20;
#X obj 926 192 unsig~ 100;
#X msg 437 529 0;
#X msg 963 550 2;
#X floatatom 212 -5 5 0 0 0 - - -;
#X msg 212 18 \$1 1000;
#X obj 496 19 / 250;
#X obj 290 392 route /humidity;
#X obj 25 458 s temp;
#X obj 124 -9 r temp;
#X obj 113 469 s name;
#X obj 250 585 r name;
#X obj 484 466 s description;
#X obj 749 671 r description;
#X text 445 -58 humidity;
#X obj 407 470 s wind;
#X obj 917 59 r wind;
#X obj 174 471 s clouds;
#X obj 674 376 r clouds;
#X obj 291 461 s humidity;
#X obj 352 -20 r humidity;
#X text 886 237 3;
#X obj 808 209 tabread4~ sampleTuut;
#X msg 701 466 wet 0.5;
#X obj 46 744 gemwin;
#X msg 38 552 reset \, dimen 600 600 \, create;
#X msg 853 717 30;
#N canvas 0 22 450 278 (subpatch) 0;
#X array sampleTuut 97920 float 2;
#X coords 0 1 97920 -1 200 140 1;
#X restore 976 -46 graph;
#X msg 807 5 read -resize \$1 sampleTuut;
#X obj 124 17 + 40;
#X obj 134 36 * 10;
#X text 258 -5 1;
#X obj 673 192 hsl 128 15 0 0.2 0 0 empty empty empty -2 -8 0 10 -262144
-1 -1 2540 1;
#X floatatom 670 217 5 0 0 0 - - -;
#X text 911 742 https://www.youtube.com/watch?v=-8t5ZZE6Tk8;
#X text 910 724 http://www.pd-tutorial.com/english/ch03s04.html#id426491
;
#X obj 918 87 / 20;
#X floatatom 697 45 5 0 0 0 - - -;
#X msg 697 71 \$1 25;
#X obj 696 98 line~;
#X obj 646 81 noise~;
#X obj 674 117 *~;
#X obj 639 1 hsl 128 15 0.01 1 0 0 empty empty empty -2 -8 0 10 -262144
-1 -1 3848 1;
#X obj 634 160 bp~;
#X obj 637 -48 r wind;
#X obj 639 -22 / 10;
#X connect 0 0 1 0;
#X connect 2 0 3 0;
#X connect 3 0 4 0;
#X connect 3 0 5 0;
#X connect 3 0 7 0;
#X connect 3 0 12 0;
#X connect 3 0 18 0;
#X connect 3 0 62 0;
#X connect 3 0 101 0;
#X connect 4 0 6 0;
#X connect 6 0 102 0;
#X connect 7 0 8 0;
#X connect 8 0 9 0;
#X connect 9 0 104 0;
#X connect 10 0 113 0;
#X connect 11 0 111 0;
#X connect 12 0 11 0;
#X connect 14 0 15 0;
#X connect 15 0 20 0;
#X connect 16 0 13 0;
#X connect 17 0 30 0;
#X connect 18 0 19 0;
#X connect 19 0 109 0;
#X connect 20 0 13 0;
#X connect 21 0 13 1;
#X connect 22 0 118 0;
#X connect 23 0 118 0;
#X connect 24 0 118 0;
#X connect 25 0 13 0;
#X connect 26 0 20 1;
#X connect 27 0 20 2;
#X connect 28 0 20 3;
#X connect 29 0 118 0;
#X connect 30 0 13 0;
#X connect 32 0 37 1;
#X connect 33 0 41 1;
#X connect 34 0 35 0;
#X connect 35 0 36 0;
#X connect 35 0 40 0;
#X connect 36 0 32 0;
#X connect 37 0 58 0;
#X connect 38 0 33 0;
#X connect 39 0 38 0;
#X connect 40 0 39 0;
#X connect 41 0 58 1;
#X connect 42 0 43 0;
#X connect 43 0 44 0;
#X connect 44 0 46 1;
#X connect 45 0 46 0;
#X connect 46 0 41 0;
#X connect 46 0 37 0;
#X connect 47 0 42 0;
#X connect 49 0 51 0;
#X connect 50 0 51 1;
#X connect 51 0 58 0;
#X connect 51 0 58 1;
#X connect 55 0 34 0;
#X connect 58 0 59 0;
#X connect 58 1 59 1;
#X connect 60 0 61 0;
#X connect 61 0 58 0;
#X connect 62 0 64 0;
#X connect 63 0 106 0;
#X connect 64 0 63 0;
#X connect 65 0 66 0;
#X connect 67 0 68 0;
#X connect 68 0 71 0;
#X connect 69 0 66 0;
#X connect 70 0 76 0;
#X connect 71 0 66 0;
#X connect 72 0 68 1;
#X connect 73 0 71 1;
#X connect 74 0 71 2;
#X connect 75 0 71 3;
#X connect 76 0 66 0;
#X connect 77 0 15 1;
#X connect 78 0 79 0;
#X connect 79 0 122 0;
#X connect 80 0 81 0;
#X connect 80 0 85 1;
#X connect 81 0 82 0;
#X connect 82 0 83 0;
#X connect 83 0 84 0;
#X connect 84 0 85 0;
#X connect 84 0 95 0;
#X connect 85 0 116 0;
#X connect 86 0 58 0;
#X connect 86 0 58 1;
#X connect 87 0 91 0;
#X connect 88 0 89 0;
#X connect 88 0 90 0;
#X connect 89 0 82 0;
#X connect 89 1 83 1;
#X connect 92 0 86 1;
#X connect 93 0 94 0;
#X connect 94 0 92 0;
#X connect 95 0 87 0;
#X connect 96 0 15 2;
#X connect 97 0 68 2;
#X connect 98 0 99 0;
#X connect 99 0 50 0;
#X connect 100 0 47 0;
#X connect 101 0 10 0;
#X connect 103 0 123 0;
#X connect 105 0 25 0;
#X connect 107 0 65 0;
#X connect 110 0 130 0;
#X connect 112 0 60 0;
#X connect 114 0 55 0;
#X connect 114 0 100 0;
#X connect 116 0 86 0;
#X connect 117 0 58 0;
#X connect 119 0 118 0;
#X connect 120 0 66 1;
#X connect 122 0 80 0;
#X connect 123 0 124 0;
#X connect 124 0 49 0;
#X connect 126 0 127 0;
#X connect 127 0 137 2;
#X connect 130 0 88 0;
#X connect 131 0 132 0;
#X connect 132 0 133 0;
#X connect 133 0 135 1;
#X connect 134 0 135 0;
#X connect 135 0 137 0;
#X connect 136 0 131 0;
#X connect 137 0 58 0;
#X connect 137 0 58 1;
#X connect 138 0 139 0;
#X connect 139 0 136 0;
